HIERARCHY
ROOT Hips
{
  OFFSET -33.9132 29.2015 117.021
  CHANNELS 6 Xposition Yposition Zposition Zrotation Xrotation Yrotation
  JOINT LeftUpLeg
  {
    OFFSET 8.64259 1.95398 -2.38835
    CHANNELS 3 Zrotation Xrotation Yrotation
    JOINT LeftLeg
    {
      OFFSET 43.7702 0 0
      CHANNELS 3 Zrotation Xrotation Yrotation
      JOINT LeftFoot
      {
        OFFSET 40.6238 0 0
        CHANNELS 3 Zrotation Xrotation Yrotation
        JOINT LeftToeBase
        {
          OFFSET 12.7242 0 0
          CHANNELS 3 Zrotation Xrotation Yrotation
          End Site
          {
            OFFSET 0 0 0
          }
        }
      }
    }
  }
  JOINT RightUpLeg
  {
    OFFSET -8.2249 1.95398 -2.59336
    CHANNELS 3 Zrotation Xrotation Yrotation
    JOINT RightLeg
    {
      OFFSET 43.5653 0 0
      CHANNELS 3 Zrotation Xrotation Yrotation
      JOINT RightFoot
      {
        OFFSET 40.6238 0 0
        CHANNELS 3 Zrotation Xrotation Yrotation
        JOINT RightToeBase
        {
          OFFSET 12.7242 0 0
          CHANNELS 3 Zrotation Xrotation Yrotation
          End Site
          {
            OFFSET 0 0 0
          }
        }
      }
    }
  }
  JOINT Spine
  {
    OFFSET 0.165834 0.87714 6.61349
    CHANNELS 3 Zrotation Xrotation Yrotation
    JOINT Spine1
    {
      OFFSET 7.38963 1.71661e-005 0
      CHANNELS 3 Zrotation Xrotation Yrotation
      JOINT Spine2
      {
        OFFSET 11.9445 1.14441e-005 0
        CHANNELS 3 Zrotation Xrotation Yrotation
        JOINT Spine3
        {
          OFFSET 14.7254 4.19617e-005 0
          CHANNELS 3 Zrotation Xrotation Yrotation
          JOINT Spine4
          {
            OFFSET 10.9679 0 0
            CHANNELS 3 Zrotation Xrotation Yrotation
            JOINT RightShoulder
            {
              OFFSET 2.46616 -1.6653 3.69651
              CHANNELS 3 Zrotation Xrotation Yrotation
              JOINT RightArm
              {
                OFFSET 13.0012 0 0
                CHANNELS 3 Zrotation Xrotation Yrotation
                JOINT RightForeArm
                {
                  OFFSET 28.7848 1.62311e-005 0
                  CHANNELS 3 Zrotation Xrotation Yrotation
                  JOINT RightHand
                  {
                    OFFSET 26.5688 1.62095e-005 0
                    CHANNELS 3 Zrotation Xrotation Yrotation
                    End Site
                    {
                      OFFSET 0 0 0
                    }
                  }
                }
              }
            }
            JOINT LeftShoulder
            {
              OFFSET 2.38034 -1.29275 -3.7523
              CHANNELS 3 Zrotation Xrotation Yrotation
              JOINT LeftArm
              {
                OFFSET 16.3182 6.07031e-005 0
                CHANNELS 3 Zrotation Xrotation Yrotation
                JOINT LeftForeArm
                {
                  OFFSET 27.0901 0 0
                  CHANNELS 3 Zrotation Xrotation Yrotation
                  JOINT LeftHand
                  {
                    OFFSET 24.5451 1.51738e-005 0
                    CHANNELS 3 Zrotation Xrotation Yrotation
                    End Site
                    {
                      OFFSET 0 0 0
                    }
                  }
                }
              }
            }
            JOINT Neck
            {
              OFFSET 5.0226 -0.0266342 0
              CHANNELS 3 Zrotation Xrotation Yrotation
              JOINT Head
              {
                OFFSET 6.69364 2.86102e-005 0
                CHANNELS 3 Zrotation Xrotation Yrotation
                End Site
                {
                  OFFSET 0 0 0
                }
              }
            }
          }
        }
      }
    }
  }
}
MOTION
Frames:	9
Frame Time:	0.0416667
35.2867 102.168 -329.602 -176.056 -83.8006 -177.333 -173.27 -6.75095 91.1157 -6.98797 5.55223 -0.0545226 66.8545 5.92365 1.73746 25.2842 -10.4247 17.7408 173.607 -4.00537 90.824 -13.8137 -5.79944 0.48224 68.9716 -5.4312 -0.603828 25.8602 0.297474 3.80895 0.195842 7.53303 -89.9469 11.8077 0.414505 0.0619399 0.136869 0.416837 0.0436285 -22.3987 0.376723 0.183645 -2.38608 0.376734 0.183656 92.7747 -28.8859 -101.561 53.3772 1.69165 -9.55155 -5.50124 -44.8316 -5.57307 -11.3823 1.0555 -16.5487 -88.3722 -48.5967 80.8985 -24.0698 -6.42686 -15.8392 -12.1847 32.895 -0.0197129 4.86934 -0.302069 -14.162 2.86617 -3.4238 -2.26961 -7.86142 -2.96953 -0.899844 
34.223 101.86 -328.879 -171.03 -82.9411 -173.132 -172.839 -7.85634 91.1871 -7.45319 5.16056 -0.42237 67.5863 8.03765 4.31803 25.0708 -7.53383 11.9919 172.782 -4.14098 90.0443 -16.2135 -6.73744 0.778313 70.994 -5.95383 -0.25819 25.082 0.574118 3.99849 0.244855 7.60857 -89.872 11.6566 0.547096 0.198226 -0.0142447 0.555293 0.173944 -22.55 0.462226 0.353487 -2.53735 0.46223 0.35349 90.9889 -28.7977 -105.229 53.3497 2.36607 -7.75176 -5.84363 -49.0881 -5.80078 -19.5146 1.66541 -15.2012 -88.4116 -50.1759 81.14 -22.3099 -8.20284 -13.2346 -11.5721 31.2077 -0.0193527 1.56137 -0.170139 -19.536 1.60868 -3.03041 -1.21121 -7.29253 -2.78033 -0.816753 
32.9506 101.278 -328.122 -175.25 -82.6413 -177.739 -171.796 -6.05094 92.9816 -11.85 6.00472 -0.5893 68.2932 9.71289 4.1117 27.2697 -6.78635 13.2389 172.702 -3.75891 90.3412 -19.1443 -6.13952 0.950121 73.069 -6.42701 -0.504295 23.9426 1.14205 3.71233 0.302464 7.73641 -89.8101 11.4002 0.690492 0.307919 -0.270641 0.703371 0.277228 -22.8066 0.56602 0.5012 -2.79391 0.566026 0.501212 91.2121 -28.4134 -104.914 53.4923 2.23051 -7.94186 -5.80419 -48.6292 -5.77307 -18.7082 1.67383 -15.7487 -87.919 -49.6258 81.7774 -21.6074 -9.06139 -11.4535 -11.2919 28.1893 -0.0187797 5.19464 -0.73862 -18.0436 2.36184 -2.82584 -0.555065 -7.6185 -2.67487 -0.74264 
32.0786 100.86 -327.518 177.766 -82.8374 175.325 -172.188 1.54144 90.822 -25.4627 4.15673 0.110402 69.8083 8.69722 -0.296555 27.8924 -7.25985 15.009 172.687 -3.62088 90.9317 -20.0468 -5.1357 1.31636 74.2783 -6.9392 -0.722846 24.285 0.698183 4.74411 0.333013 7.79158 -89.8838 11.2903 0.71688 0.160278 -0.380443 0.723245 0.128559 -22.9168 0.63556 0.368327 -2.90419 0.635572 0.368329 90.7389 -28.3557 -105.9 52.1439 3.04651 -7.41253 -5.77045 -48.2327 -5.75099 -17.3868 1.55273 -15.7773 -87.8578 -49.8482 81.9102 -20.5633 -10.43 -9.55348 -10.8434 27.1603 -0.0186037 4.99792 -0.7841 -18.833 2.20398 -2.4766 0.400657 -7.22434 -2.47944 -0.80331 
31.4864 100.801 -326.686 164.999 -83.1263 161.884 -173.983 9.21628 91.2619 -37.8911 4.80275 0.972466 68.6744 6.55074 -1.70526 25.9505 -6.89687 11.8042 172.766 -4.52141 91.011 -18.423 -3.08224 1.24162 74.7813 -7.17617 -0.457033 24.4379 0.67649 4.59237 0.417986 7.8075 -89.8786 11.2585 0.88839 0.153781 -0.412152 0.894297 0.114522 -22.9493 0.801097 0.413688 -2.93665 0.801092 0.413676 90.989 -27.4702 -105.726 52.5742 2.99076 -7.01344 -5.27858 -41.6947 -5.43742 -16.6158 1.73466 -17.5825 -87.6996 -49.4898 82.0844 -20.1752 -10.6932 -7.82882 -10.8201 25.4754 -0.018335 5.78499 -0.932514 -18.8341 1.78159 -2.52075 0.744351 -6.93729 -2.56299 -1.24191 
31.6089 101.012 -325.338 158.545 -83.555 153.798 -175.29 13.8103 87.556 -37.5 5.33157 0.209095 69.2952 5.60243 -5.79 25.5341 -8.74367 14.8949 172.091 -5.03527 89.3482 -17.6253 -3.37091 0.951498 74.6856 -7.31636 -0.604351 25.6863 0.443057 3.55098 0.678529 7.86188 -89.8077 11.1491 1.43988 0.24224 -0.521006 1.44915 0.178615 -23.0615 1.3005 0.663854 -3.04881 1.3005 0.663851 90.7842 -27.2269 -106.244 51.7224 2.79087 -8.72158 -5.36627 -42.9663 -5.48963 -16.4396 1.59143 -16.7092 -87.5763 -49.3233 82.2415 -20.4234 -11.7568 -5.92356 -10.3419 25.5318 -0.0183334 5.9631 -1.0188 -19.4203 1.94697 -3.11357 1.63147 -6.89885 -3.2718 -1.73775 
32.0049 100.811 -323.07 146.394 -83.6726 140.511 -176.942 16.3152 83.6032 -27.247 8.56114 -0.859959 65.8654 4.14957 -3.11886 23.8389 -8.42429 12.363 171.685 -5.65799 88.3198 -17.4884 -2.00742 0.598708 75.6856 -7.80203 -0.421421 26.5577 0.0586958 3.5784 0.812018 7.91058 -89.8021 11.0519 1.70821 0.229187 -0.617941 1.71664 0.153754 -23.1608 1.56034 0.732104 -3.14815 1.56034 0.732093 90.4866 -27.1174 -106.905 50.3355 2.18538 -12.4743 -5.37069 -43.0283 -5.49223 -15.292 1.7251 -18.6512 -87.3299 -49.522 82.6484 -20.8569 -12.565 -3.03539 -9.8359 26.0842 -0.0235182 5.59454 -0.983603 -19.5353 2.55489 -3.14164 2.93988 -6.13168 -3.52703 -1.64831 
32.4747 100.262 -319.81 139.549 -83.6812 133.428 -178.827 16.6464 81.0219 -13.388 9.51431 -1.46891 64.6102 4.49627 -0.422626 17.9459 -8.89495 6.62957 171.258 -7.39494 87.8989 -17.354 -1.33696 0.539608 77.0222 -8.83954 -0.742211 28.5999 -1.03936 4.58845 0.996757 7.96036 -89.9298 10.9551 2.01692 -0.0518652 -0.714272 2.01269 -0.14062 -23.2613 1.93923 0.556942 -3.24866 1.93922 0.556926 90.6864 -26.5879 -106.703 49.1097 1.4661 -16.4949 -5.33912 -42.58 -5.47352 -16.0564 1.94823 -19.5816 -88.0003 -50.8123 81.8704 -20.2815 -11.4189 -0.703557 -10.3839 25.3105 -0.0737998 4.81964 -0.733192 -17.7346 2.49825 -3.14991 4.26225 -4.45078 -3.76709 -1.98207 
32.7282 99.3279 -315.114 147.157 -84.2909 141.447 -178.953 17.6599 80.4669 -7.99357 6.83996 -2.61242 64.571 4.09143 -1.66229 16.141 -10.3208 7.234 171.837 -10.9599 88.5081 -16.5935 -0.454636 -0.402512 78.7501 -10.0829 -0.22557 30.0752 -1.46235 3.77696 1.14511 8.00743 -89.9899 10.8628 2.28467 -0.194125 -0.806218 2.27391 -0.294548 -23.357 2.23734 0.501844 -3.34438 2.23733 0.501842 89.9527 -27.14 -108.001 47.2247 1.40581 -19.9517 -5.5725 -45.7684 -5.61863 -14.1115 1.82843 -20.6841 -87.8317 -51.5298 82.2456 -20.641 -11.2465 1.80104 -10.5512 26.3059 -0.0378295 4.87929 -0.542192 -15.3578 2.6294 -2.86781 4.01902 -3.87814 -3.46041 -2.06748 
